<svg id="Layer_1" data-name="Layer 1" xmlns="http://www.w3.org/2000/svg" viewBox="0 0 140.44 140.44"><defs><style>.cls-1{fill:#1d1d1b;}</style></defs><title>logo</title><path class="cls-1" d="M70.87,141.09a70.22,70.22,0,1,1,70.22-70.22A70.3,70.3,0,0,1,70.87,141.09ZM70.87,7a63.84,63.84,0,1,0,63.84,63.84A63.91,63.91,0,0,0,70.87,7Z" transform="translate(-0.64 -0.64)"/><path class="cls-1" d="M80.54,96.18L68.68,71.67c-2.58,1.87-6.33,4.37-8.47,5.79V96.18H51.92V45.55h8.29v22.1a75.24,75.24,0,0,0,20.23-22.1h9.09C86.51,52,80,60.79,75,66.05l14.8,30.13H80.54Z" transform="translate(-0.64 -0.64)"/></svg>